<svg width="54" height="54" viewBox="0 0 54 54" fill="none" xmlns="http://www.w3.org/2000/svg">
<path d="M50.2968 25.3569L48.6074 24.8684C47.9311 22.4666 46.6531 20.9033 44.8839 19.0158L47.1108 14.1969C47.2522 13.8883 47.1957 13.5232 46.9668 13.2738C46.738 13.0218 46.3805 12.9344 46.0617 13.0501L40.1732 15.1586C38.2395 13.9989 36.064 13.0989 33.7214 12.528C33.9555 11.8003 34.084 11.0237 34.084 10.2189C34.084 6.07626 30.7206 2.71539 26.5806 2.71539C22.438 2.71539 19.0771 6.07879 19.0771 10.2189C19.0771 11.2552 19.2879 12.2426 19.6686 13.14C13.2195 15.3463 8.36454 20.1112 6.83714 25.8994C6.38457 25.6423 5.99887 25.3466 5.6774 25.0251C6.4257 23.9914 7.17401 22.7777 7.55201 21.6462C8.04317 20.1702 7.92231 18.8228 6.88344 17.9254C6.25347 17.3802 5.60547 17.2491 5.01401 17.3673C4.46367 17.4779 3.93654 17.8302 3.5174 18.3959C2.48107 19.7895 2.07744 22.6876 3.5405 25.0533C2.8771 25.871 2.34997 26.4136 2.34997 26.4136C2.02597 26.7479 2.03631 27.2828 2.37054 27.6068C2.70477 27.9308 3.2397 27.9204 3.5637 27.5862C3.5637 27.5862 4.0188 27.1131 4.62831 26.3725C5.13487 26.8431 5.74944 27.2647 6.4874 27.6145C6.38457 28.3293 6.33057 29.0571 6.33057 29.7925C6.33057 35.5088 9.50887 40.6208 14.5 43.9225V47.8954C14.5 49.8676 16.0994 51.4671 18.0717 51.4671H19.6659C21.6382 51.4671 23.2376 49.8676 23.2376 47.8954V47.3759C24.6905 47.6357 26.1948 47.7745 27.7402 47.7745C29.5453 47.7745 31.2965 47.5868 32.968 47.2345V47.5456C32.968 48.4919 33.3434 49.4022 34.0145 50.0708C34.6856 50.7419 35.5934 51.1173 36.5397 51.1173H38.1339C39.0828 51.1173 39.9905 50.7419 40.6591 50.0708C41.3302 49.3997 41.7056 48.4919 41.7056 47.5456V43.4211C45.0665 41.0013 46.8356 38.3579 47.8179 34.6268L50.109 34.1794C51.1453 33.9762 51.891 33.0685 51.891 32.0142V27.473C51.8912 26.4909 51.2405 25.6294 50.2968 25.3569ZM4.6591 23.5465C4.13197 22.3405 4.16024 21.0445 4.50744 20.0957C4.77744 19.3474 5.21714 18.7174 5.77517 19.2008C6.08377 19.4683 6.16351 19.8359 6.13514 20.2422C6.09147 20.8285 5.84457 21.4739 5.51287 22.1193C5.26597 22.6054 4.97024 23.0889 4.6591 23.5465ZM26.578 4.39973C29.7898 4.39973 32.3946 7.00713 32.3946 10.2163C32.3946 13.4281 29.7872 16.0329 26.578 16.0329C23.3663 16.0329 20.7614 13.4255 20.7614 10.2163C20.7614 7.0046 23.3663 4.39973 26.578 4.39973ZM50.2017 32.0168C50.2017 32.2663 50.0268 32.4771 49.7825 32.5259L46.9668 33.0763C46.6428 33.1406 46.3857 33.3874 46.3085 33.7089C45.4265 37.4245 43.7525 39.96 40.3814 42.2923C40.1525 42.4492 40.0188 42.7089 40.0188 42.9866V47.5484C40.0188 48.0498 39.8208 48.5281 39.4659 48.8803C39.1136 49.2352 38.6328 49.4332 38.1339 49.4332H36.5397C36.0383 49.4332 35.56 49.2326 35.2077 48.8803C34.8554 48.5281 34.6548 48.0498 34.6548 47.5484C34.6548 46.7924 34.6548 46.1726 34.6548 46.1726C34.6548 45.913 34.534 45.6661 34.3283 45.5066C34.1225 45.3471 33.8526 45.2906 33.6006 45.3575C31.7465 45.8331 29.7794 46.0904 27.7403 46.0904C25.9558 46.0904 24.2251 45.8924 22.5769 45.5246C22.3274 45.4681 22.0651 45.5298 21.8645 45.6892C21.6639 45.8486 21.5482 46.0929 21.5482 46.3475V47.8981C21.5482 48.9395 20.7048 49.7829 19.6634 49.7829H18.0691C17.0277 49.7829 16.1843 48.9395 16.1843 47.8981V43.4649C16.1843 43.1769 16.0352 42.9069 15.7909 42.7501C11.0826 39.7801 8.01744 35.0872 8.01744 29.7926C8.01744 22.8831 13.2272 17.0075 20.5145 14.6289C21.1291 15.4698 21.9134 16.1795 22.816 16.704C21.0494 17.0538 19.3677 17.5861 17.8017 18.2777C17.3748 18.4655 17.1819 18.9643 17.3697 19.3886C17.5574 19.8155 18.0563 20.0084 18.4806 19.8206C21.2449 18.6017 24.3948 17.9126 27.7377 17.9126C30.8362 17.9126 33.7728 18.5041 36.3854 19.5635C36.8174 19.7384 37.3085 19.5301 37.4834 19.0981C37.6583 18.6661 37.45 18.1749 37.018 18C35.092 17.2209 33.0014 16.6758 30.8054 16.4109C31.6925 15.8041 32.4435 15.0095 33.0014 14.0864C35.4289 14.6418 37.6685 15.5727 39.6254 16.7993C39.8439 16.9355 40.1139 16.9664 40.3583 16.879L44.7348 15.313L43.1123 18.8255C42.9683 19.1392 43.0274 19.5095 43.2666 19.7616C45.1308 21.7261 46.4835 23.1918 47.0902 25.7427C47.1596 26.0384 47.386 26.2724 47.6765 26.3573L49.8262 26.9795C50.0474 27.0438 50.2017 27.247 50.2017 27.4784V32.0168Z" fill="#1758A8"/>
<path d="M42.6087 24.4697C41.6779 24.4697 40.9219 25.2257 40.9219 26.1566C40.9219 27.0875 41.6779 27.8435 42.6087 27.8435C43.5396 27.8435 44.2956 27.0875 44.2956 26.1566C44.2982 25.2257 43.5422 24.4697 42.6087 24.4697Z" fill="#1758A8"/>
<path d="M26.447 11.0469C26.4906 11.0521 26.5319 11.0572 26.5781 11.0572C27.1104 11.0572 27.5526 11.2861 27.5526 11.6898C27.5526 11.8287 27.464 11.9436 27.3484 12.037C27.3369 12.0465 27.3254 12.0561 27.3134 12.0653C27.0922 12.2325 26.7836 12.325 26.4442 12.325C26.0174 12.325 25.6291 12.181 25.4286 11.9187C25.1457 11.5484 24.616 11.479 24.2457 11.7619C24.2227 11.7794 24.2009 11.7979 24.1802 11.8173C23.8703 12.1102 23.8243 12.5959 24.0888 12.9422C24.4462 13.4101 25.0325 13.7831 25.7345 13.9347V14.5107C25.7345 14.9761 26.1125 15.3541 26.578 15.3541C26.81 15.3541 27.0203 15.2602 27.1728 15.1082C27.3248 14.9556 27.4188 14.7454 27.4188 14.5132V13.8678C27.4196 13.8674 27.4205 13.8671 27.4213 13.8668V13.8651C27.8952 13.7169 28.3017 13.4647 28.6096 13.1484C29.0051 12.7407 29.2367 12.2271 29.2367 11.6923C29.2393 10.5274 28.3084 9.48849 26.8325 9.38049C26.7913 9.37532 26.7502 9.37015 26.7064 9.37015C26.3696 9.37015 26.061 9.27755 25.8399 9.11048C25.7088 9.01282 25.6033 8.88932 25.6033 8.73765C25.6033 8.62343 25.6631 8.52682 25.7486 8.44424C25.7774 8.41618 25.809 8.38971 25.8425 8.36482C26.0637 8.19765 26.3722 8.10252 26.7091 8.10252C27.1385 8.10252 27.5268 8.24649 27.7247 8.50879C28.0076 8.87909 28.5373 8.95112 28.9076 8.66825C28.9306 8.65075 28.9523 8.63218 28.973 8.61288C29.2829 8.32 29.3289 7.83431 29.0644 7.48795C28.707 7.01999 28.1207 6.64705 27.4187 6.49539V5.91942C27.4187 5.45399 27.0407 5.07599 26.5752 5.07599C26.3432 5.07599 26.1329 5.17007 25.9803 5.32194C25.8284 5.47456 25.7343 5.68475 25.7343 5.91689V6.56236C25.7335 6.56268 25.7326 6.56299 25.7318 6.56331V6.565C25.2579 6.71318 24.8513 6.96546 24.5436 7.28145C24.148 7.68877 23.9164 8.20187 23.9164 8.73523C23.9167 9.87946 24.9838 10.9337 26.447 11.0469Z" fill="#1758A8"/>
</svg>
