<svg width="54" height="54" viewBox="0 0 54 54" fill="none" xmlns="http://www.w3.org/2000/svg">
<path d="M53.5781 41.7656H51.6375V9.7031C51.6375 7.76248 50.0766 6.20154 48.1359 6.20154H5.86406C3.92344 6.20154 2.3625 7.76248 2.3625 9.7031V41.7656H0.421875C0.16875 41.7656 0 41.9344 0 42.1875V44.2547C0 46.2375 1.60312 47.7984 3.54375 47.7984H50.4141C52.3969 47.7984 53.9578 46.1953 53.9578 44.2547V42.1875C54 41.9344 53.8313 41.7656 53.5781 41.7656ZM3.20625 9.7031C3.20625 8.22654 4.3875 7.04529 5.86406 7.04529H48.1359C49.6125 7.04529 50.7938 8.22654 50.7938 9.7031V41.7234H3.20625V9.7031ZM34.2141 42.6094V44.0859C34.2141 44.3812 34.0031 44.5922 33.7078 44.5922H20.2922C19.9969 44.5922 19.7859 44.3812 19.7859 44.0859V42.6094H34.2141ZM53.1562 44.2125C53.1562 45.689 51.9328 46.9125 50.4562 46.9125H3.54375C2.06719 46.9125 0.84375 45.689 0.84375 44.2125V42.6094H18.9422V44.0859C18.9422 44.8453 19.5328 45.4359 20.2922 45.4359H33.7078C34.4672 45.4359 35.0578 44.8453 35.0578 44.0859V42.6094H53.1562V44.2125ZM47.8406 9.57654H6.15938C5.90625 9.57654 5.7375 9.74529 5.7375 9.99841V38.7703C5.7375 39.0234 5.90625 39.1922 6.15938 39.1922H47.8406C48.0938 39.1922 48.2625 39.0234 48.2625 38.7703V9.99841C48.2625 9.78748 48.0516 9.57654 47.8406 9.57654ZM47.4188 38.3484H6.58125V10.4203H47.4188V38.3484ZM18.3094 30.2906C18.1828 30.2906 18.0141 30.375 17.9297 30.5015L15.8203 33.8765H14.9344C14.7234 33.1172 14.0484 32.6531 13.3313 32.6531C12.4031 32.6531 11.6859 33.4125 11.6859 34.3406C11.6859 35.2265 12.4453 35.9859 13.3313 35.9859C14.0906 35.9859 14.7234 35.5219 14.9344 34.7625H16.0734C16.2422 34.7625 16.3687 34.6781 16.4531 34.5515L18.5625 31.1344H19.6172V33.4547C19.6172 34.1719 20.2078 34.7203 20.8828 34.7203H33.1594C33.8766 34.7203 34.425 34.1297 34.425 33.4547V31.1344H35.4375L37.5469 34.5515C37.6313 34.6781 37.7578 34.7625 37.9266 34.7625H39.0656C39.2766 35.5219 39.9516 35.9859 40.6266 35.9859C41.5125 35.9859 42.2719 35.2687 42.2719 34.3406C42.2719 33.4125 41.5547 32.6953 40.6266 32.6531C39.9094 32.6531 39.2344 33.1172 39.0234 33.8765H38.1375L36.0281 30.5015C35.9438 30.375 35.8172 30.2906 35.6484 30.2906H34.3406V28.814H36.9984C37.1672 29.5312 37.8422 30.0375 38.6016 30.0375C39.5297 30.0375 40.2469 29.2781 40.2469 28.3922C40.2469 27.464 39.4875 26.7469 38.6016 26.7469C37.8422 26.7469 37.2094 27.2531 36.9984 27.9703H34.3406V26.4937H35.6484C35.775 26.4937 35.9438 26.4093 36.0281 26.2828L38.1375 22.8656H39.0234C39.1922 23.5828 39.8672 24.089 40.6266 24.089C41.5547 24.089 42.2719 23.3297 42.2719 22.4437C42.2719 21.5578 41.5125 20.7984 40.6266 20.7984C39.8672 20.7984 39.2344 21.3047 39.0234 22.0219H37.8844C37.7156 22.0219 37.5891 22.1062 37.5047 22.2328L35.3953 25.6078H34.3406V23.2875C34.3406 22.5703 33.75 22.0219 33.075 22.0219H32.8219V18.6469C32.8219 15.3984 30.2063 12.7828 26.9578 12.7828C23.7094 12.7828 21.0938 15.3984 21.0938 18.6469V22.0219H20.8406C20.1234 22.0219 19.575 22.6125 19.575 23.2875V25.6078H18.5625L16.4531 22.2328C16.3687 22.1062 16.2422 22.0219 16.0734 22.0219H14.9344C14.7656 21.3047 14.0906 20.7984 13.3313 20.7984C12.4031 20.7984 11.6859 21.5578 11.6859 22.4437C11.6859 23.3297 12.4453 24.089 13.3313 24.089C14.0906 24.089 14.7234 23.5406 14.9344 22.8656H15.8203L17.9297 26.2828C18.0141 26.4093 18.1406 26.4937 18.3094 26.4937H19.6172V27.9703H16.9594C16.7906 27.2531 16.1156 26.7469 15.3563 26.7469C14.4281 26.7469 13.7109 27.5062 13.7109 28.3922C13.7109 29.3203 14.4703 30.0375 15.3563 30.0375C16.1156 30.0375 16.7484 29.489 16.9594 28.814H19.6172V30.2906H18.3094ZM13.3313 35.1422C12.9094 35.1422 12.5297 34.8047 12.5297 34.3406C12.5297 33.8765 12.8672 33.539 13.3313 33.4969C13.7953 33.4969 14.1328 33.8765 14.1328 34.2984C14.175 34.7625 13.7953 35.1422 13.3313 35.1422ZM40.6688 33.4969C41.1328 33.4969 41.4703 33.8765 41.4703 34.2984C41.4703 34.7203 41.1328 35.1 40.6266 35.1C40.1625 35.1 39.825 34.7203 39.825 34.2562C39.8672 33.8765 40.2047 33.4969 40.6688 33.4969ZM38.6859 27.5906C39.15 27.5906 39.4875 27.9703 39.4875 28.3922C39.4875 28.8562 39.1078 29.1937 38.6859 29.1937C38.2219 29.1937 37.8844 28.814 37.8844 28.3922C37.8422 27.9703 38.2219 27.5906 38.6859 27.5906ZM40.6688 21.7265C41.1328 21.7265 41.4703 22.1062 41.4703 22.5281C41.4703 22.9922 41.0906 23.3297 40.6688 23.3297C40.2469 23.3297 39.8672 22.95 39.8672 22.5281C39.825 22.064 40.2047 21.7265 40.6688 21.7265ZM21.9797 18.689C21.9797 15.9047 24.2156 13.6687 27 13.6687C29.7844 13.6687 32.0203 15.9468 32.0203 18.689V22.064H30.7547V18.689C30.7547 16.6218 29.0672 14.9344 27 14.9344C24.9328 14.9344 23.2453 16.6218 23.2453 18.689V22.064H21.9797V18.689ZM29.9109 18.689V22.064H24.0891V18.689C24.0891 17.0859 25.3969 15.7781 27 15.7781C28.6031 15.7781 29.9109 17.0859 29.9109 18.689ZM20.4188 23.3719C20.4188 23.1187 20.6297 22.95 20.8406 22.95C25.1859 22.95 33.1594 22.95 33.1172 22.95C33.3703 22.95 33.5391 23.1609 33.5391 23.3719V33.4547C33.5391 33.7078 33.3281 33.8765 33.1172 33.8765H20.8828C20.6297 33.8765 20.4609 33.6656 20.4609 33.4547L20.4188 23.3719ZM13.3313 23.3297C12.8672 23.3297 12.5297 22.95 12.5297 22.5281C12.5297 22.064 12.9094 21.7265 13.3313 21.7265C13.7953 21.7265 14.1328 22.1062 14.1328 22.5281C14.175 22.95 13.7953 23.3297 13.3313 23.3297ZM15.3141 29.2359C14.85 29.2359 14.5125 28.8562 14.5125 28.4344C14.5125 27.9703 14.8922 27.6328 15.3141 27.6328C15.7781 27.6328 16.1156 28.0125 16.1156 28.4344C16.1578 28.8562 15.7781 29.2359 15.3141 29.2359ZM25.6922 28.8984L25.1859 31.1765C25.1438 31.4297 25.3125 31.6828 25.6078 31.6828H28.4344C28.6875 31.6828 28.8984 31.4297 28.8563 31.1765L28.35 28.8984C28.8562 28.5187 29.1516 27.8859 29.1516 27.2531C29.1516 26.0718 28.2234 25.1437 27.0422 25.1437C25.8609 25.1437 24.9328 26.114 24.9328 27.2531C24.8906 27.8859 25.1859 28.5187 25.6922 28.8984ZM27 25.9875C27.7172 25.9875 28.2656 26.5781 28.2656 27.2531C28.2656 27.7172 28.0125 28.139 27.6328 28.35C27.4641 28.4343 27.3797 28.6453 27.4219 28.814L27.8859 30.839H26.1141L26.5781 28.814C26.6203 28.6453 26.5359 28.4343 26.3672 28.35C25.9875 28.139 25.7344 27.7172 25.7344 27.2531C25.7344 26.5781 26.2828 25.9875 27 25.9875Z" fill="#1758A8"/>
</svg>
