<svg width="54" height="54" viewBox="0 0 54 54" fill="none" xmlns="http://www.w3.org/2000/svg">
<g clip-path="url(#clip0_1898_387)">
<path d="M43.7168 30.4269C42.1175 30.4269 40.8164 31.7281 40.8164 33.3274C40.8164 34.9268 42.1175 36.2278 43.7168 36.2278C45.3161 36.2278 46.6172 34.9268 46.6172 33.3274C46.6172 31.7281 45.3161 30.4269 43.7168 30.4269ZM43.7168 34.6458C42.9898 34.6458 42.3984 34.0544 42.3984 33.3274C42.3984 32.6004 42.9898 32.009 43.7168 32.009C44.4438 32.009 45.0351 32.6004 45.0351 33.3274C45.0351 34.0544 44.4438 34.6458 43.7168 34.6458Z" fill="#1758A8"/>
<path d="M51.6271 23.044H50.8365V20.6706V12.2331C50.8365 9.47066 48.589 7.22323 45.8267 7.22323H24.1024L9.44619 3.0357C9.44197 3.03454 9.43764 3.03391 9.43342 3.03275C9.4291 3.03159 9.42499 3.0299 9.42066 3.02885C9.4118 3.02663 9.40305 3.02558 9.39429 3.02368C9.38069 3.02083 9.36708 3.01788 9.35348 3.01566C9.34114 3.01366 9.32901 3.0124 9.31667 3.01092C9.30233 3.00923 9.28809 3.00775 9.27385 3.00691C9.26225 3.00628 9.25075 3.00617 9.23915 3.00596C9.22438 3.00575 9.20972 3.00565 9.19506 3.00628C9.1842 3.0067 9.17334 3.00775 9.16258 3.0086C9.1475 3.00986 9.13242 3.01124 9.11754 3.01345C9.10742 3.01493 9.0974 3.01682 9.08738 3.01862C9.07198 3.02136 9.05679 3.02431 9.04171 3.028C9.03233 3.03032 9.02315 3.03296 9.01387 3.0356C8.99847 3.04003 8.98328 3.04456 8.9681 3.04984C8.95955 3.0529 8.95112 3.05616 8.94257 3.05954C8.92728 3.06545 8.91209 3.07167 8.89722 3.07852C8.88931 3.08222 8.88161 3.08622 8.87381 3.09013C8.85894 3.09761 8.84428 3.10521 8.82993 3.11375C8.82244 3.11807 8.81527 3.12272 8.80789 3.12736C8.79376 3.13622 8.77983 3.14529 8.76633 3.15509C8.75927 3.16016 8.75241 3.16564 8.74545 3.17102C8.73248 3.18104 8.71961 3.19127 8.70727 3.20213C8.70031 3.20825 8.69367 3.21468 8.68692 3.22101C8.67532 3.23198 8.66382 3.24295 8.65285 3.25455C8.646 3.26183 8.63956 3.26942 8.63292 3.27702C8.6229 3.28851 8.61298 3.30011 8.6036 3.31224C8.59685 3.321 8.59052 3.32996 8.58409 3.33893C8.57575 3.35063 8.56753 3.36245 8.55993 3.37457C8.55339 3.38491 8.54738 3.39567 8.54137 3.40632C8.53473 3.41803 8.52808 3.42984 8.52207 3.44197C8.51616 3.45378 8.51089 3.46591 8.50551 3.47804C8.50024 3.48996 8.49507 3.50187 8.49043 3.51411C8.48558 3.52698 8.48136 3.54016 8.47703 3.55345C8.47429 3.56199 8.47092 3.57001 8.46839 3.57866C8.46712 3.58298 8.46659 3.5872 8.46543 3.59142C8.46427 3.59574 8.46259 3.59986 8.46153 3.60418L7.55703 7.22302H5.01028C2.25344 7.22302 0.00991404 9.46138 0.000843748 12.2162C0.00073828 12.2219 0 12.2273 0 12.2329V39.6547C0 40.0913 0.355429 40.4457 0.791014 40.4457C1.22765 40.4457 1.58203 40.0913 1.58203 39.6547V15.8814C2.47893 16.7247 3.68486 17.243 5.01028 17.243H45.8267C45.8277 17.243 45.8285 17.2428 45.8295 17.2428C47.7182 17.2443 49.2544 18.7814 49.2544 20.6707V26.2082H40.552C40.5515 26.2082 40.5511 26.2083 40.5505 26.2083C40.5277 26.2083 40.5049 26.2097 40.4822 26.2117C40.457 26.2139 40.4321 26.2175 40.4076 26.222C40.4039 26.2226 40.4004 26.223 40.3967 26.2237C40.376 26.2278 40.3557 26.2333 40.3356 26.239C40.3312 26.2403 40.3266 26.2411 40.3223 26.2425C40.3044 26.248 40.287 26.2545 40.2696 26.2611C40.2629 26.2637 40.2562 26.2658 40.2495 26.2685C40.235 26.2745 40.221 26.2816 40.2069 26.2885C40.1976 26.2929 40.1883 26.297 40.1792 26.3017C40.1682 26.3076 40.1579 26.3142 40.1473 26.3205C40.1356 26.3275 40.1237 26.3342 40.1123 26.3418C40.1046 26.3469 40.0976 26.3527 40.0902 26.3581C40.0767 26.3678 40.0631 26.3774 40.0502 26.388C40.0446 26.3927 40.0394 26.3978 40.0341 26.4026C40.0203 26.4146 40.0064 26.4265 39.9934 26.4396C39.9857 26.4473 39.9787 26.4557 39.9714 26.4637C39.9612 26.4748 39.9506 26.4857 39.9409 26.4975C39.9246 26.5174 39.9093 26.5381 39.895 26.5595C39.8946 26.5598 39.8943 26.5603 39.8941 26.5607L35.6756 32.8889C35.6462 32.933 35.6213 32.9797 35.6015 33.0283C35.5941 33.0465 35.588 33.0649 35.582 33.0833C35.5802 33.0889 35.5779 33.0942 35.5762 33.0998C35.5703 33.1193 35.5658 33.1391 35.5615 33.1587C35.5603 33.1639 35.5588 33.1689 35.5578 33.1741C35.5543 33.1918 35.552 33.2096 35.5498 33.2274C35.5488 33.235 35.5473 33.2426 35.5466 33.2503C35.5451 33.265 35.5448 33.2795 35.5443 33.2942C35.5437 33.3054 35.5428 33.3166 35.5428 33.3279C35.5428 33.3387 35.5437 33.3496 35.5442 33.3604C35.5447 33.3754 35.5451 33.3905 35.5466 33.4055C35.5473 33.4128 35.5487 33.42 35.5497 33.4273C35.552 33.4455 35.5543 33.4636 35.5579 33.4816C35.5588 33.4866 35.5603 33.4914 35.5615 33.4964C35.5658 33.5162 35.5704 33.536 35.5763 33.5558C35.578 33.5614 35.5803 33.5667 35.5821 33.5724C35.5881 33.5908 35.5942 33.6092 35.6016 33.6274C35.6215 33.6759 35.6464 33.7227 35.6759 33.7669L39.8943 40.0942C39.8945 40.0945 39.8947 40.0947 39.895 40.095C39.9119 40.1202 39.9305 40.1443 39.9501 40.1674C39.9565 40.175 39.9634 40.182 39.9701 40.1892C39.9834 40.2039 39.9974 40.218 40.0118 40.2316C40.0204 40.2396 40.0288 40.2474 40.0374 40.2549C40.0528 40.2681 40.0688 40.2804 40.0851 40.2925C40.0925 40.2978 40.0996 40.3038 40.1071 40.3088C40.1308 40.325 40.1554 40.3398 40.1808 40.3533C40.1872 40.3567 40.1939 40.3595 40.2003 40.3627C40.2205 40.3728 40.2412 40.3822 40.2624 40.3906C40.2706 40.3938 40.2789 40.3968 40.2872 40.3997C40.3073 40.4069 40.3278 40.4132 40.3487 40.4188C40.3572 40.421 40.3657 40.4234 40.3743 40.4255C40.3957 40.4304 40.4174 40.4342 40.4395 40.4374C40.4475 40.4385 40.4554 40.4401 40.4634 40.4411C40.4906 40.4441 40.5183 40.4458 40.5463 40.446C40.5485 40.446 40.5508 40.4465 40.5531 40.4465C40.5535 40.4465 40.554 40.4463 40.5546 40.4463H49.2548V45.9843C49.2548 47.8745 47.717 49.4122 45.827 49.4122H5.01071C3.12071 49.4122 1.58298 47.8745 1.58298 45.9843C1.58298 45.9802 1.58245 45.9762 1.58234 45.9721V42.8192C1.58234 42.3836 1.22797 42.0282 0.79133 42.0282C0.355745 42.0282 0.000316406 42.3836 0.000316406 42.8192V45.9843C0.000316406 45.9925 0.00126562 46.0005 0.00158203 46.0087C0.0147656 48.7599 2.2565 50.9943 5.01071 50.9943H45.827C48.5891 50.9943 50.8364 48.7472 50.8368 45.9851C50.8368 45.985 50.8368 45.9849 50.8368 45.9847V40.4463H51.6274C52.9356 40.4463 54 39.382 54 38.0737V25.4167C53.9997 24.1084 52.9353 23.044 51.6271 23.044ZM9.79803 4.78152L23.7556 8.76961C23.7563 8.76982 23.757 8.76992 23.7576 8.77013L33.1123 11.4429H8.1331L9.79803 4.78152ZM49.2543 17.022C48.3575 16.1789 47.1518 15.6607 45.8267 15.6607C45.8253 15.6607 45.8241 15.6609 45.8226 15.6609H5.01028C3.12018 15.6609 1.58245 14.1232 1.58245 12.2331C1.58245 10.343 3.12018 8.80526 5.01028 8.80526H7.16163L6.50245 11.4429H5.01049C4.57364 11.4429 4.21948 11.7971 4.21948 12.2339C4.21948 12.6708 4.57364 13.0249 5.01049 13.0249H7.11733C7.11839 13.0249 7.11955 13.0252 7.12071 13.0252C7.12155 13.0252 7.1224 13.0249 7.12314 13.0249H38.7575C38.7585 13.0249 38.7595 13.0252 38.7604 13.0252C38.7613 13.0252 38.7621 13.0249 38.763 13.0249H44.7711C45.2079 13.0249 45.5621 12.6708 45.5621 12.2339C45.5621 11.7971 45.2079 11.4429 44.7711 11.4429H38.8709L29.6393 8.80526H45.8266C47.7166 8.80526 49.2543 10.343 49.2543 12.2331V17.022ZM52.4177 38.0733C52.4177 38.5092 52.063 38.8639 51.6271 38.8639H40.9754L37.2841 33.3274L40.9754 27.7901H51.6271C51.6381 27.7901 51.6489 27.7889 51.6599 27.7884C51.9252 27.7847 52.18 27.7375 52.4177 27.6533V38.0733ZM51.6271 26.2072C51.6216 26.2072 51.6162 26.208 51.6107 26.2081H50.8365V24.6261H51.6271C52.063 24.6261 52.4177 24.9808 52.4177 25.4167C52.4177 25.8526 52.063 26.2072 51.6271 26.2072Z" fill="#1758A8"/>
<rect y="39.2343" width="1.58203" height="4.32421" fill="#1758A8"/>
</g>
<defs>
<clipPath id="clip0_1898_387">
<rect width="54" height="54" fill="white"/>
</clipPath>
</defs>
</svg>
