<svg width="54" height="54" viewBox="0 0 54 54" fill="none" xmlns="http://www.w3.org/2000/svg">
<path fill-rule="evenodd" clip-rule="evenodd" d="M33.8264 20.1751C32.4765 18.8252 30.7566 17.9059 28.8842 17.5335C27.0118 17.161 25.071 17.3522 23.3072 18.0828C21.5435 18.8134 20.036 20.0505 18.9753 21.6379C17.9147 23.2252 17.3486 25.0914 17.3486 27.0005C17.3486 28.9096 17.9147 30.7758 18.9753 32.3631C20.036 33.9505 21.5435 35.1877 23.3072 35.9182C25.071 36.6488 27.0118 36.84 28.8842 36.4675C30.7566 36.0951 32.4765 35.1758 33.8264 33.8259C35.6364 32.0156 36.6532 29.5605 36.6532 27.0005C36.6532 24.4406 35.6364 21.9854 33.8264 20.1751ZM27.0005 15.2624C29.3222 15.2624 31.5918 15.9508 33.5222 17.2408C35.4527 18.5307 36.9572 20.3641 37.8457 22.5091C38.7341 24.6541 38.9665 27.0144 38.5135 29.2915C38.0605 31.5686 36.9424 33.6603 35.3006 35.3019C33.6588 36.9435 31.5671 38.0615 29.2899 38.5143C27.0128 38.9671 24.6525 38.7345 22.5075 37.8458C20.3626 36.9572 18.5293 35.4525 17.2396 33.5219C15.9499 31.5914 15.2616 29.3217 15.2618 27C15.2621 23.8869 16.499 20.9014 18.7003 18.7002C20.9017 16.499 23.8874 15.2624 27.0005 15.2624ZM16.4304 5.82607C19.9229 4.85645 23.3006 3.51273 26.5048 1.81826C26.6552 1.73677 26.8233 1.69357 26.9944 1.69247C27.1655 1.69136 27.3342 1.73239 27.4856 1.81193C30.6927 3.51028 34.074 4.85686 37.5705 5.82818C41.1026 6.80377 44.7268 7.40857 48.3843 7.63275C48.5214 7.63205 48.6574 7.65851 48.7843 7.71059C48.9112 7.76267 49.0266 7.83935 49.1238 7.93621C49.2209 8.03307 49.2979 8.14819 49.3504 8.27495C49.4029 8.40171 49.4297 8.53759 49.4295 8.67478V21.5958V21.6031C49.3525 29.5407 47.492 35.9648 43.8122 41.0358C40.1324 46.1067 34.6501 49.797 27.3348 52.2555C27.1207 52.3278 26.8887 52.3278 26.6746 52.2555C19.3593 49.797 13.8802 46.1099 10.1972 41.0358C6.52793 35.9859 4.66852 29.5935 4.57676 21.7023C4.57467 21.6672 4.57467 21.6319 4.57676 21.5968V8.67478C4.57682 8.40951 4.67815 8.15427 4.86006 7.9612C5.04196 7.76812 5.29071 7.65177 5.55551 7.63591C9.23374 7.4142 12.8786 6.80761 16.4304 5.82607ZM27.0005 3.90232C33.3655 7.18556 40.2178 9.07767 47.3443 9.64193V21.5958C47.2695 29.0756 45.5387 35.0958 42.1173 39.8134C38.7507 44.454 33.722 47.8564 26.9963 50.1715C20.2705 47.8564 15.2418 44.4519 11.8752 39.8134C8.46961 35.1147 6.73992 29.1178 6.65344 21.6738C6.65344 21.6485 6.65344 21.6221 6.65344 21.5958V9.64404C13.7831 9.07978 20.6354 7.18767 27.0005 3.90232ZM30.7393 22.9922C30.9273 22.7902 31.1878 22.6712 31.4635 22.6613C31.7393 22.6514 32.0076 22.7515 32.2096 22.9394C32.4115 23.1274 32.5305 23.3879 32.5404 23.6636C32.5503 23.9393 32.4503 24.2077 32.2623 24.4097L26.1166 31.0194C26.0145 31.1301 25.8896 31.2173 25.7504 31.2749C25.6113 31.3325 25.4612 31.3592 25.3107 31.3531C25.1603 31.347 25.0129 31.3082 24.8789 31.2395C24.7449 31.1707 24.6274 31.0737 24.5346 30.9551L21.727 27.8437C21.6356 27.7426 21.5649 27.6245 21.5191 27.4961C21.4732 27.3676 21.4531 27.2315 21.46 27.0953C21.4668 26.9591 21.5003 26.8256 21.5587 26.7024C21.6171 26.5792 21.6992 26.4687 21.8003 26.3772C22.0045 26.1924 22.2738 26.0964 22.5488 26.1101C22.685 26.1169 22.8185 26.1505 22.9417 26.2089C23.0649 26.2673 23.1754 26.3494 23.2669 26.4505L25.3604 28.7634L30.7393 22.9922Z" fill="#1758A8"/>
</svg>
